<svg width="70" height="74" viewBox="0 0 70 74" fill="none" xmlns="http://www.w3.org/2000/svg">
  <circle cx="35" cy="39" r="35" fill="#064CD8" />
  <path
    d="M53 56C53 53.6362 52.5344 51.2956 51.6298 49.1117C50.7252 46.9278 49.3994 44.9435 47.7279 43.2721C46.0565 41.6006 44.0722 40.2748 41.8883 39.3702C39.7044 38.4656 37.3638 38 35 38C32.6362 38 30.2956 38.4656 28.1117 39.3702C25.9278 40.2748 23.9435 41.6006 22.2721 43.2721C20.6006 44.9435 19.2748 46.9278 18.3702 49.1117C17.4656 51.2956 17 53.6362 17 56L35 56H53Z"
    fill="white" />
  <path
    d="M53 18C53 20.3638 52.5344 22.7044 51.6298 24.8883C50.7252 27.0722 49.3994 29.0565 47.7279 30.7279C46.0565 32.3994 44.0722 33.7252 41.8883 34.6298C39.7044 35.5344 37.3638 36 35 36C32.6362 36 30.2956 35.5344 28.1117 34.6298C25.9278 33.7252 23.9435 32.3994 22.2721 30.7279C20.6006 29.0565 19.2748 27.0722 18.3702 24.8883C17.4656 22.7044 17 20.3638 17 18L35 18H53Z"
    fill="white" />
</svg>